<?xml version="1.0" encoding="utf-8"?>
<svg width="335" height="201" viewBox="0 0 335 201" fill="none" xmlns="http://www.w3.org/2000/svg">
  <defs/>
  <path fill-rule="evenodd" clip-rule="evenodd" d="M150.376 82.8297C142.64 82.0408 132.931 79.9678 123.647 75.1265C110.726 68.3884 95.6628 57.0232 90.75 35.2504L90.25 35.2502C95.4079 58.1092 108.297 71.0413 122.04 78.2077C131.771 83.2817 141.892 85.4501 149.945 86.2787C149.833 87.6071 149.777 88.9768 149.777 90.3876C149.777 93.946 150.416 97.004 151.695 99.5616C152.974 102.064 154.809 104.01 157.2 105.4C159.59 106.734 162.454 107.401 165.79 107.401C168.292 107.401 170.822 107.123 173.379 106.567C174.818 106.292 176.19 105.949 177.494 105.538C178.17 107.522 179.247 109.162 180.725 110.459C180.96 110.665 181.205 110.863 181.461 111.052C179.67 112.156 178.285 113.404 177.305 114.796C176.305 116.297 175.804 118.048 175.804 120.05C175.804 121.885 176.249 123.469 177.139 124.804C178.084 126.083 179.446 127.056 181.225 127.723C183.004 128.39 185.201 128.724 187.814 128.724H199.99C202.047 128.724 203.743 129.002 205.078 129.558C206.468 130.058 207.468 130.809 208.08 131.809C208.747 132.81 209.081 134.089 209.081 135.646C209.081 137.703 208.441 139.454 207.163 140.9C205.939 142.346 204.132 143.43 201.742 144.153C199.351 144.931 196.432 145.32 192.985 145.32C175.05 145.32 167.915 149.24 192.651 149.24C197.21 149.24 201.047 148.684 204.16 147.572C207.329 146.46 209.748 144.848 211.416 142.735C213.14 140.622 214.001 138.12 214.001 135.229C214.001 131.615 212.917 128.89 210.749 127.056C208.636 125.221 205.495 124.303 201.325 124.303H187.814C185.089 124.303 183.088 123.803 181.809 122.802C180.586 121.801 179.974 120.495 179.974 118.882C179.974 117.381 180.391 116.075 181.225 114.963C181.94 114.07 182.869 113.249 184.013 112.499C186.416 113.53 189.407 114.045 192.985 114.045C198.433 114.045 202.52 112.85 205.244 110.459C207.969 108.068 209.331 104.51 209.331 99.7839C209.331 95.5448 208.235 92.2451 206.043 89.8848C206.436 89.4588 206.865 89.1166 207.329 88.8585C208.386 88.2469 209.609 87.9411 210.999 87.9411C211.444 87.9411 211.861 87.9689 212.25 88.0245C212.695 88.0245 213.112 88.0801 213.501 88.1913L214.001 84.0213C213.501 83.8545 213.028 83.7711 212.584 83.7711C212.139 83.7155 211.638 83.6877 211.082 83.6877C209.025 83.6877 207.274 84.1325 205.828 85.0221C204.721 85.6609 203.842 86.5443 203.191 87.6725C200.606 86.2391 197.204 85.5225 192.985 85.5225C187.536 85.5225 183.449 86.7179 180.725 89.1087C178 91.4995 176.638 95.0579 176.638 99.7839C176.638 100.403 176.662 101.002 176.708 101.581C176.186 101.752 175.66 101.912 175.131 102.064C173.629 102.453 172.156 102.759 170.71 102.981C169.265 103.203 167.875 103.315 166.54 103.315C163.983 103.315 161.814 102.786 160.035 101.73C158.256 100.674 156.894 99.1724 155.949 97.2264C155.003 95.2248 154.531 92.8062 154.531 89.9706C154.531 88.8258 154.571 87.7138 154.651 86.6346C156.058 86.7023 157.364 86.7301 158.549 86.7301V86.653C158.847 86.6485 159.147 86.6424 159.451 86.6346C161.62 86.5234 163.788 86.2732 165.957 85.884C172.017 84.8276 176.743 82.9928 180.135 80.3796C183.526 77.7108 185.222 74.3748 185.222 70.3716C185.222 68.4812 184.722 66.8688 183.721 65.5344C182.776 64.1444 181.386 63.088 179.551 62.3652C177.716 61.5868 175.548 61.1976 173.046 61.1976C169.487 61.1976 166.262 61.9204 163.371 63.366C160.48 64.756 158.034 66.7576 156.032 69.3708C154.03 71.9284 152.474 74.9864 151.362 78.5448C150.955 79.9154 150.626 81.3437 150.376 82.8297ZM159.285 83.0484C157.83 83.134 156.424 83.1701 155.068 83.1569C155.443 80.9313 156.015 78.8657 156.783 76.9602C158.339 73.235 160.452 70.3438 163.121 68.2866C165.79 66.1738 168.82 65.1174 172.212 65.1174C174.936 65.1174 176.993 65.6178 178.383 66.6186C179.829 67.6194 180.552 69.1206 180.552 71.1222C180.552 74.0134 179.162 76.4042 176.382 78.2946C173.657 80.185 169.876 81.5472 165.039 82.3812C163.149 82.7148 161.231 82.9372 159.285 83.0484ZM192.985 110.292C196.877 110.292 199.74 109.458 201.575 107.79C203.465 106.122 204.41 103.453 204.41 99.7839C204.41 96.0587 203.465 93.3621 201.575 91.6941C199.74 90.0261 196.877 89.1921 192.985 89.1921C189.148 89.1921 186.285 90.0261 184.394 91.6941C182.56 93.3621 181.642 96.0587 181.642 99.7839C181.642 103.453 182.56 106.122 184.394 107.79C186.285 109.458 189.148 110.292 192.985 110.292Z" fill="black"/>
  <path fill-rule="evenodd" clip-rule="evenodd" d="M173.064 151.203C176.105 149.682 184.546 149.194 191.706 149.194V145.335C184.532 145.335 176.958 145.902 171.165 148.798C168.225 150.268 165.706 152.365 163.946 155.326C162.19 158.281 161.262 161.976 161.3 166.529L161.635 166.5C161.601 162.438 164.015 158.261 165.535 156.488C167.055 154.714 170.611 152.429 173.064 151.203Z" fill="black"/>
</svg>