<?xml version="1.0" encoding="utf-8"?>
<svg width="115" height="116" viewBox="0 0 115 116" fill="none" xmlns="http://www.w3.org/2000/svg">
  <defs/>
  <rect x="0.357422" y="0.75" width="114.5" height="114.5" fill="white"/>
  <ellipse cx="57.8125" cy="74.125" rx="32.0625" ry="14.375" fill="white"/>
  <path fill-rule="evenodd" clip-rule="evenodd" d="M57.6075 23.33C52.908 23.33 49.0985 27.1396 49.0985 31.839C49.0985 36.5384 52.908 40.3481 57.6075 40.3481C62.307 40.3481 66.1166 36.5384 66.1166 31.839C66.1166 27.1396 62.307 23.33 57.6075 23.33ZM81.5876 48.5339C81.5876 44.0378 77.442 40.6865 73.0457 41.6285L67.1742 42.8867L67.1471 42.8925C66.8361 42.9591 66.6866 42.9912 66.5389 43.0217C60.647 44.2404 54.5681 44.2404 48.6762 43.0217C48.5243 42.9903 48.3703 42.9573 48.0408 42.8867L42.1693 41.6285C37.773 40.6865 33.6274 44.0378 33.6274 48.5339C33.6274 51.5735 35.5726 54.2723 38.4563 55.2337L45.1871 57.4773C45.6113 57.6187 45.865 57.7038 46.0532 57.7749C46.1724 57.8198 46.2225 57.8439 46.2346 57.8498C46.4886 58.0104 46.6268 58.3031 46.5891 58.6011C46.5861 58.6144 46.5728 58.6686 46.5319 58.7889C46.4672 58.9795 46.3715 59.2295 46.211 59.6466L42.3532 69.6771C40.6202 74.1829 43.9461 79.0256 48.7738 79.0256C51.2423 79.0256 53.5216 77.7029 54.7466 75.5595L57.6075 70.5528L60.4684 75.5595C61.6934 77.7029 63.9726 79.0256 66.4412 79.0256C71.2691 79.0256 74.595 74.1829 72.862 69.6771L69.0041 59.6466C68.8435 59.2295 68.7479 58.9795 68.6832 58.7889C68.6424 58.6686 68.6291 58.6144 68.626 58.6011C68.5882 58.3031 68.7265 58.0104 68.9806 57.8498C68.9926 57.8439 69.0428 57.8198 69.1619 57.7749C69.35 57.7038 69.6038 57.6187 70.028 57.4773L76.7588 55.2337C79.6426 54.2723 81.5876 51.5735 81.5876 48.5339Z" style="fill: rgb(0, 102, 52);"/>
  <path d="M35.5866 66.4016C36.7317 65.8258 37.1933 64.4309 36.6175 63.2857C36.0418 62.1406 34.6468 61.6792 33.5017 62.2547C28.4087 64.8155 24.3447 68.6601 24.3447 73.6108C24.3447 78.9378 29.0311 82.9878 34.7758 85.5727C40.7383 88.256 48.8126 89.8554 57.6074 89.8554C66.4024 89.8554 74.4764 88.256 80.4389 85.5727C86.1836 82.9878 90.8701 78.9378 90.8701 73.6108C90.8701 68.6601 86.8062 64.8155 81.7131 62.2547C80.568 61.6792 79.1731 62.1406 78.5973 63.2857C78.0214 64.4309 78.4831 65.8258 79.6283 66.4016C84.3342 68.7677 86.2288 71.4291 86.2288 73.6108C86.2288 75.9738 83.9886 78.8858 78.5345 81.3401C73.2981 83.6967 65.9014 85.214 57.6074 85.214C49.3134 85.214 41.9167 83.6967 36.6804 81.3401C31.2263 78.8858 28.986 75.9738 28.986 73.6108C28.986 71.4291 30.8806 68.7677 35.5866 66.4016Z" style="fill: rgb(219, 255, 0);"/>
</svg>